<?xml version="1.0" encoding="utf-8"?>
<!-- Generator: Adobe Illustrator 16.0.0, SVG Export Plug-In . SVG Version: 6.00 Build 0)  -->
<!DOCTYPE svg PUBLIC "-//W3C//DTD SVG 1.1//EN" "http://www.w3.org/Graphics/SVG/1.1/DTD/svg11.dtd">
<svg version="1.1" id="Layer_1" xmlns="http://www.w3.org/2000/svg" xmlns:xlink="http://www.w3.org/1999/xlink" x="0px" y="0px"
	 width="195px" height="87.896px" viewBox="0 0 195 87.896" enable-background="new 0 0 195 87.896" xml:space="preserve">
<g>
	<g>
		<path d="M16.546,16.374l6.985,0.012l-0.022-7.237l-7.492-0.016c-0.41,0-0.75-0.323-0.777-0.739l-0.342-7.984L7.6,1.26L6.624,8.443
			C6.565,8.819,6.239,9.107,5.856,9.107L1.373,9.102L0.5,16.271l5.337,0.009c0.432,0,0.772,0.348,0.772,0.779L6.555,43.857
			c-0.016,7.128,6.99,7.705,9.137,7.705c0.246,0.006,0.475,0,0.703-0.018c2.474-0.123,4.27-0.67,5.123-0.971l-0.078-6.62
			c-2.73-0.021-4.112-0.436-4.903-1.466c-0.805-1.037-0.8-2.454-0.8-4.604l0.047-20.744C15.78,16.717,16.125,16.374,16.546,16.374z"
			/>
		<path d="M46.739,10.693c-12.892-0.025-19.178,6.5-19.203,19.938c-0.025,14.091,7.262,20.945,22.269,20.982
			c4.999,0.006,9.334-0.342,12.897-1.041l0.015-6.937c-4.013,0.693-8.076,1.039-12.084,1.029
			c-9.255-0.016-13.945-3.304-13.936-9.771c0-0.427,0.353-0.775,0.776-0.775l27.503,0.056c0.182-1.484,0.273-2.991,0.278-4.483
			C65.284,16.935,59.229,10.717,46.739,10.693z M55.687,28.266l-18.158-0.035c-0.372-0.017-0.8-0.349-0.756-0.917
			c0.514-6.537,3.937-9.77,10.045-9.754c6.412,0.011,9.736,3.245,9.736,9.607C56.555,27.169,56.663,28.266,55.687,28.266z"/>
		<polygon points="72.375,51.657 81.54,51.673 81.644,0.504 72.478,0.49 		"/>
		<path d="M106.941,10.812c-4.39-0.011-9.323,0.607-14.685,1.834l-0.01,6.906c5.331-1.194,10.266-1.804,14.68-1.797
			c5.951,0.016,8.968,2.204,8.968,6.508l-0.018,3.189c0,0.229-0.098,0.447-0.275,0.603c-0.14,0.109-0.312,0.17-0.494,0.17
			l-0.137-0.013c-2.817-0.535-5.691-0.812-8.515-0.819c-11.888-0.022-17.668,3.854-17.689,11.854
			c-0.015,8.372,4.816,12.45,14.766,12.471c4.28,0.012,8.237-1.215,11.775-3.646c0.312-0.201,0.739-0.158,0.996,0.102l3.566,3.58
			l5.134,0.006l0.05-27.683C125.078,15.172,119.149,10.836,106.941,10.812z M115.858,41.519c0,0.237-0.122,0.472-0.325,0.62
			c-3.168,2.294-6.653,3.458-10.358,3.45c-4.74-0.01-7.249-2.242-7.237-6.452c0.01-4.001,2.876-6.025,8.517-6.015
			c3.102,0.003,6.068,0.291,8.792,0.842c0.363,0.077,0.624,0.396,0.624,0.76L115.858,41.519z"/>
		<path d="M180.675,10.956c-4.522-0.005-8.943,1.878-13.121,5.609c-0.144,0.124-0.334,0.199-0.523,0.199l-0.133-0.017
			c-0.248-0.054-0.443-0.207-0.549-0.417c-1.814-3.587-5.258-5.409-10.262-5.42c-5.083-0.009-9.506,1.966-13.15,5.877
			c-0.198,0.201-0.5,0.292-0.774,0.218c-0.282-0.079-0.485-0.312-0.554-0.597l-1.115-5.527l-6.887-0.021l-0.071,40.914l9.161,0.02
			l0.059-28.742c0-0.2,0.08-0.395,0.219-0.538c2.924-2.996,6.096-4.515,9.418-4.502c3.049,0.005,6.686,1.396,6.664,7.986
			l-0.052,25.829l9.171,0.014l0.057-28.739c0-0.208,0.076-0.403,0.229-0.552c3.082-2.988,6.361-4.494,9.733-4.489
			c4.689,0.009,7.146,2.729,7.143,7.864l-0.049,25.955l9.163,0.016l0.049-25.542C194.528,16.014,190.004,10.977,180.675,10.956z"/>
		<path d="M50.133,6.685h-4.85c-0.095,0-0.169-0.049-0.218-0.124c-0.046-0.074-0.046-0.173,0-0.251l3.166-5.687
			c0.04-0.085,0.128-0.134,0.213-0.134h7.014c0.101,0,0.189,0.06,0.234,0.148c0.041,0.094,0.021,0.203-0.049,0.272L50.39,6.6
			C50.343,6.656,50.283,6.685,50.133,6.685z"/>
	</g>
</g>
<g display="none">
	<g display="inline">
		
			<linearGradient id="SVGID_1_" gradientUnits="userSpaceOnUse" x1="273.0156" y1="-315.4421" x2="273.0156" y2="-242.8832" gradientTransform="matrix(1 0 0 -1 -261 -262.104)">
			<stop  offset="0" style="stop-color:#222222"/>
			<stop  offset="1" style="stop-color:#666666"/>
		</linearGradient>
		<path fill="url(#SVGID_1_)" d="M16.546,16.374l6.985,0.012l-0.022-7.237l-7.492-0.016c-0.41,0-0.75-0.323-0.777-0.739
			l-0.342-7.984L7.6,1.26L6.624,8.443C6.565,8.819,6.239,9.107,5.856,9.107L1.373,9.102L0.5,16.271l5.337,0.009
			c0.432,0,0.772,0.348,0.772,0.779L6.555,43.857c-0.016,7.128,6.99,7.705,9.137,7.705c0.246,0.006,0.475,0,0.703-0.018
			c2.474-0.123,4.27-0.67,5.123-0.971l-0.078-6.62c-2.73-0.021-4.112-0.436-4.903-1.466c-0.805-1.037-0.8-2.454-0.8-4.604
			l0.047-20.744C15.78,16.717,16.125,16.374,16.546,16.374z"/>
		
			<linearGradient id="SVGID_2_" gradientUnits="userSpaceOnUse" x1="307.3945" y1="-315.4421" x2="307.3945" y2="-242.8836" gradientTransform="matrix(1 0 0 -1 -261 -262.104)">
			<stop  offset="0" style="stop-color:#222222"/>
			<stop  offset="1" style="stop-color:#666666"/>
		</linearGradient>
		<path fill="url(#SVGID_2_)" d="M46.739,10.693c-12.892-0.025-19.178,6.5-19.203,19.938c-0.025,14.091,7.262,20.945,22.269,20.982
			c4.999,0.006,9.334-0.342,12.897-1.041l0.015-6.937c-4.013,0.693-8.076,1.039-12.084,1.029
			c-9.255-0.016-13.945-3.304-13.936-9.771c0-0.427,0.353-0.775,0.776-0.775l27.503,0.056c0.182-1.484,0.273-2.991,0.278-4.483
			C65.284,16.935,59.229,10.717,46.739,10.693z M55.687,28.266l-18.158-0.035c-0.372-0.017-0.8-0.349-0.756-0.917
			c0.514-6.537,3.937-9.77,10.045-9.754c6.412,0.011,9.736,3.245,9.736,9.607C56.555,27.169,56.663,28.266,55.687,28.266z"/>
		
			<linearGradient id="SVGID_3_" gradientUnits="userSpaceOnUse" x1="338.0098" y1="-315.4431" x2="338.0098" y2="-242.8828" gradientTransform="matrix(1 0 0 -1 -261 -262.104)">
			<stop  offset="0" style="stop-color:#222222"/>
			<stop  offset="1" style="stop-color:#666666"/>
		</linearGradient>
		<polygon fill="url(#SVGID_3_)" points="72.375,51.657 81.54,51.673 81.644,0.504 72.478,0.49 		"/>
		
			<linearGradient id="SVGID_4_" gradientUnits="userSpaceOnUse" x1="367.9102" y1="-315.4421" x2="367.9102" y2="-242.8836" gradientTransform="matrix(1 0 0 -1 -261 -262.104)">
			<stop  offset="0" style="stop-color:#222222"/>
			<stop  offset="1" style="stop-color:#666666"/>
		</linearGradient>
		<path fill="url(#SVGID_4_)" d="M106.941,10.812c-4.39-0.011-9.323,0.607-14.685,1.834l-0.01,6.906
			c5.331-1.194,10.266-1.804,14.68-1.797c5.951,0.016,8.968,2.204,8.968,6.508l-0.018,3.189c0,0.229-0.098,0.447-0.275,0.603
			c-0.14,0.109-0.312,0.17-0.494,0.17l-0.137-0.013c-2.817-0.535-5.691-0.812-8.515-0.819c-11.888-0.022-17.668,3.854-17.689,11.854
			c-0.015,8.372,4.816,12.45,14.766,12.471c4.28,0.012,8.237-1.215,11.775-3.646c0.312-0.201,0.739-0.158,0.996,0.102l3.566,3.58
			l5.134,0.006l0.05-27.683C125.078,15.172,119.149,10.836,106.941,10.812z M115.858,41.519c0,0.237-0.122,0.472-0.325,0.62
			c-3.168,2.294-6.653,3.458-10.358,3.45c-4.74-0.01-7.249-2.242-7.237-6.452c0.01-4.001,2.876-6.025,8.517-6.015
			c3.102,0.003,6.068,0.291,8.792,0.842c0.363,0.077,0.624,0.396,0.624,0.76L115.858,41.519z"/>
		
			<linearGradient id="SVGID_5_" gradientUnits="userSpaceOnUse" x1="425.0186" y1="-315.4421" x2="425.0186" y2="-242.8836" gradientTransform="matrix(1 0 0 -1 -261 -262.104)">
			<stop  offset="0" style="stop-color:#222222"/>
			<stop  offset="1" style="stop-color:#666666"/>
		</linearGradient>
		<path fill="url(#SVGID_5_)" d="M180.675,10.956c-4.522-0.005-8.943,1.878-13.121,5.609c-0.144,0.124-0.334,0.199-0.523,0.199
			l-0.133-0.017c-0.248-0.054-0.443-0.207-0.549-0.417c-1.814-3.587-5.258-5.409-10.262-5.42c-5.083-0.009-9.506,1.966-13.15,5.877
			c-0.198,0.201-0.5,0.292-0.774,0.218c-0.282-0.079-0.485-0.312-0.554-0.597l-1.115-5.527l-6.887-0.021l-0.071,40.914l9.161,0.02
			l0.059-28.742c0-0.2,0.08-0.395,0.219-0.538c2.924-2.996,6.096-4.515,9.418-4.502c3.049,0.005,6.686,1.396,6.664,7.986
			l-0.052,25.829l9.171,0.014l0.057-28.739c0-0.208,0.076-0.403,0.229-0.552c3.082-2.988,6.361-4.494,9.733-4.489
			c4.689,0.009,7.146,2.729,7.143,7.864l-0.049,25.955l9.163,0.016l0.049-25.542C194.528,16.014,190.004,10.977,180.675,10.956z"/>
		
			<linearGradient id="SVGID_6_" gradientUnits="userSpaceOnUse" x1="311.3721" y1="-315.4514" x2="311.372" y2="-242.8797" gradientTransform="matrix(1 0 0 -1 -261 -262.104)">
			<stop  offset="0" style="stop-color:#222222"/>
			<stop  offset="1" style="stop-color:#666666"/>
		</linearGradient>
		<path fill="url(#SVGID_6_)" d="M50.133,6.685h-4.85c-0.095,0-0.169-0.049-0.218-0.124c-0.046-0.074-0.046-0.173,0-0.251
			l3.166-5.687c0.04-0.085,0.128-0.134,0.213-0.134h7.014c0.101,0,0.189,0.06,0.234,0.148c0.041,0.094,0.021,0.203-0.049,0.272
			L50.39,6.6C50.343,6.656,50.283,6.685,50.133,6.685z"/>
	</g>
</g>
<g display="none" opacity="0.1">
	<g display="inline">
		
			<linearGradient id="SVGID_7_" gradientUnits="userSpaceOnUse" x1="273.0166" y1="504.3406" x2="273.0166" y2="576.9016" gradientTransform="matrix(1 0 0 1 -261 -453.373)">
			<stop  offset="0" style="stop-color:#222222"/>
			<stop  offset="0.4535" style="stop-color:#666666;stop-opacity:0"/>
		</linearGradient>
		<path fill="url(#SVGID_7_)" d="M15.785,87.163l-0.047-20.744c0-2.148-0.004-3.564,0.8-4.604c0.791-1.029,2.172-1.445,4.903-1.465
			l0.078-6.619c-0.853-0.301-2.649-0.848-5.123-0.971c-0.228-0.018-0.457-0.021-0.703-0.018c-2.146,0-9.152,0.576-9.137,7.705
			L6.61,87.245c0,0.434-0.341,0.779-0.772,0.779L0.5,88.034l0.873,7.17l4.483-0.006c0.383,0,0.709,0.289,0.768,0.664l0.976,7.186
			l7.298,0.85l0.342-7.984c0.027-0.416,0.367-0.738,0.777-0.738l7.492-0.018l0.022-7.236l-6.985,0.012
			C16.125,87.93,15.781,87.591,15.785,87.163z"/>
		
			<linearGradient id="SVGID_8_" gradientUnits="userSpaceOnUse" x1="307.3965" y1="504.3386" x2="307.3965" y2="576.8989" gradientTransform="matrix(1 0 0 1 -261 -453.373)">
			<stop  offset="0" style="stop-color:#222222"/>
			<stop  offset="0.4535" style="stop-color:#666666;stop-opacity:0"/>
		</linearGradient>
		<path fill="url(#SVGID_8_)" d="M65.254,74.618c-0.005-1.492-0.096-3-0.278-4.482l-27.502,0.053c-0.423,0-0.776-0.348-0.776-0.775
			c-0.009-6.467,4.681-9.756,13.936-9.771c4.008-0.008,8.071,0.336,12.084,1.031l-0.015-6.939
			c-3.562-0.697-7.898-1.045-12.897-1.041C34.8,52.731,27.513,59.585,27.538,73.677c0.025,13.436,6.311,19.961,19.203,19.936
			C59.229,93.591,65.285,87.37,65.254,74.618z M56.555,77.137c0,6.363-3.324,9.598-9.736,9.607
			c-6.108,0.016-9.531-3.217-10.045-9.754c-0.043-0.566,0.385-0.898,0.756-0.916l18.158-0.035
			C56.664,76.04,56.556,77.137,56.555,77.137z"/>
		
			<linearGradient id="SVGID_9_" gradientUnits="userSpaceOnUse" x1="338.0107" y1="504.3406" x2="338.0107" y2="576.8988" gradientTransform="matrix(1 0 0 1 -261 -453.373)">
			<stop  offset="0" style="stop-color:#222222"/>
			<stop  offset="0.4535" style="stop-color:#666666;stop-opacity:0"/>
		</linearGradient>
		<polygon fill="url(#SVGID_9_)" points="72.479,103.815 81.645,103.802 81.541,52.635 72.375,52.647 		"/>
		
			<linearGradient id="SVGID_10_" gradientUnits="userSpaceOnUse" x1="367.9121" y1="504.3406" x2="367.9121" y2="576.8965" gradientTransform="matrix(1 0 0 1 -261 -453.373)">
			<stop  offset="0" style="stop-color:#222222"/>
			<stop  offset="0.4535" style="stop-color:#666666;stop-opacity:0"/>
		</linearGradient>
		<path fill="url(#SVGID_10_)" d="M125.056,80.231l-0.051-27.682l-5.134,0.004l-3.567,3.582c-0.256,0.26-0.683,0.301-0.994,0.1
			c-3.538-2.432-7.495-3.658-11.776-3.645c-9.95,0.02-14.781,4.1-14.766,12.471c0.021,8,5.801,11.877,17.688,11.854
			c2.822-0.008,5.696-0.283,8.516-0.82l0.135-0.012c0.183,0,0.355,0.061,0.496,0.17c0.178,0.154,0.274,0.371,0.274,0.602
			l0.019,3.189c0,4.305-3.018,6.492-8.968,6.51c-4.414,0.006-9.349-0.605-14.68-1.799l0.01,6.904
			c5.361,1.229,10.296,1.848,14.686,1.834C119.149,93.469,125.078,89.135,125.056,80.231z M115.87,69.581
			c0,0.363-0.262,0.684-0.624,0.762c-2.723,0.549-5.689,0.838-8.792,0.84c-5.64,0.012-8.506-2.014-8.517-6.014
			c-0.012-4.211,2.497-6.443,7.237-6.451c3.704-0.01,7.189,1.154,10.357,3.449c0.203,0.148,0.326,0.383,0.326,0.619L115.87,69.581z"
			/>
		
			<linearGradient id="SVGID_11_" gradientUnits="userSpaceOnUse" x1="425.0176" y1="504.3386" x2="425.0176" y2="576.9024" gradientTransform="matrix(1 0 0 1 -261 -453.373)">
			<stop  offset="0" style="stop-color:#222222"/>
			<stop  offset="0.4535" style="stop-color:#666666;stop-opacity:0"/>
		</linearGradient>
		<path fill="url(#SVGID_11_)" d="M194.499,77.952l-0.048-25.543l-9.163,0.018l0.049,25.955c0.006,5.135-2.453,7.854-7.143,7.861
			c-3.372,0.006-6.651-1.5-9.733-4.486c-0.153-0.148-0.229-0.346-0.229-0.553l-0.057-28.738l-9.171,0.012l0.052,25.83
			c0.021,6.59-3.615,7.98-6.664,7.984c-3.322,0.014-6.494-1.506-9.418-4.502c-0.139-0.145-0.219-0.338-0.219-0.537l-0.059-28.742
			l-9.161,0.02l0.071,40.914l6.887-0.021l1.115-5.527c0.066-0.283,0.271-0.518,0.554-0.596c0.274-0.074,0.576,0.016,0.774,0.217
			c3.646,3.91,8.067,5.887,13.15,5.877c5.004-0.01,8.446-1.834,10.262-5.42c0.104-0.211,0.301-0.363,0.549-0.418l0.133-0.016
			c0.189,0,0.381,0.076,0.523,0.199c4.178,3.73,8.599,5.613,13.121,5.609C190.004,93.329,194.528,88.292,194.499,77.952z"/>
		
			<linearGradient id="SVGID_12_" gradientUnits="userSpaceOnUse" x1="311.374" y1="504.3269" x2="311.374" y2="576.9044" gradientTransform="matrix(1 0 0 1 -261 -453.373)">
			<stop  offset="0" style="stop-color:#222222"/>
			<stop  offset="0.4535" style="stop-color:#666666;stop-opacity:0"/>
		</linearGradient>
		<path fill="url(#SVGID_12_)" d="M50.392,97.704l5.253,5.689c0.069,0.07,0.089,0.18,0.049,0.271
			c-0.044,0.09-0.133,0.148-0.234,0.148h-7.014c-0.085,0-0.174-0.049-0.213-0.133l-3.166-5.688c-0.046-0.078-0.046-0.178,0-0.252
			c0.049-0.074,0.123-0.123,0.218-0.123h4.85C50.284,97.62,50.344,97.649,50.392,97.704z"/>
	</g>
</g>
</svg>
