<?xml version="1.0" encoding="utf-8"?>
<!-- Generator: Adobe Illustrator 16.0.0, SVG Export Plug-In . SVG Version: 6.00 Build 0)  -->
<!DOCTYPE svg PUBLIC "-//W3C//DTD SVG 1.1//EN" "http://www.w3.org/Graphics/SVG/1.1/DTD/svg11.dtd">
<svg version="1.1" id="Layer_1" xmlns="http://www.w3.org/2000/svg" xmlns:xlink="http://www.w3.org/1999/xlink" x="0px" y="0px"
	 width="180.779px" height="47.636px" viewBox="0 0 180.779 47.636" enable-background="new 0 0 180.779 47.636"
	 xml:space="preserve">
<g>
	<g>
		<path fill="#FFFFFF" stroke="#4D4D4D" stroke-miterlimit="10" d="M14.955,14.842l6.511,0.01l-0.021-6.746l-6.982-0.014
			c-0.383,0-0.698-0.301-0.725-0.688l-0.319-7.44L6.617,0.757L5.707,7.45C5.651,7.801,5.347,8.068,4.991,8.068L0.812,8.063L0,14.745
			l4.975,0.009c0.4,0,0.72,0.323,0.72,0.726L5.642,40.455c-0.016,6.645,6.515,7.18,8.515,7.18c0.23,0.006,0.443,0,0.655-0.014
			c2.306-0.117,3.979-0.625,4.773-0.906l-0.072-6.168c-2.544-0.02-3.832-0.405-4.569-1.365c-0.75-0.967-0.746-2.286-0.746-4.29
			l0.044-19.332C14.242,15.16,14.563,14.842,14.955,14.842z"/>
		<path fill="#FFFFFF" stroke="#4D4D4D" stroke-miterlimit="10" d="M43.094,9.546C31.08,9.523,25.221,15.604,25.198,28.126
			c-0.023,13.131,6.769,19.521,20.753,19.554c4.659,0.005,8.699-0.318,12.021-0.97l0.015-6.465
			c-3.74,0.646-7.526,0.971-11.262,0.961c-8.626-0.016-12.996-3.08-12.987-9.107c0-0.398,0.328-0.723,0.724-0.723l25.631,0.051
			c0.172-1.385,0.256-2.788,0.26-4.18C60.376,15.363,54.734,9.569,43.094,9.546z M51.432,25.921L34.51,25.889
			c-0.346-0.015-0.745-0.323-0.703-0.854c0.479-6.092,3.668-9.103,9.36-9.089c5.977,0.01,9.073,3.024,9.073,8.955
			C52.241,24.9,52.342,25.921,51.432,25.921z"/>
		<polygon fill="#FFFFFF" stroke="#4D4D4D" stroke-miterlimit="10" points="66.984,47.722 75.525,47.735 75.623,0.051 67.081,0.037 
					"/>
		<path fill="#FFFFFF" stroke="#4D4D4D" stroke-miterlimit="10" d="M99.198,9.657c-4.091-0.01-8.689,0.567-13.686,1.708
			l-0.011,6.437c4.97-1.113,9.566-1.681,13.683-1.676c5.545,0.014,8.355,2.055,8.355,6.064l-0.014,2.974
			c0,0.213-0.093,0.416-0.259,0.561c-0.13,0.104-0.291,0.156-0.462,0.156l-0.125-0.01c-2.627-0.5-5.307-0.758-7.938-0.763
			c-11.077-0.022-16.465,3.591-16.482,11.048c-0.015,7.799,4.486,11.602,13.76,11.62c3.987,0.011,7.679-1.131,10.976-3.397
			c0.291-0.188,0.688-0.146,0.928,0.094l3.324,3.338l4.784,0.005l0.046-25.799C116.102,13.72,110.575,9.68,99.198,9.657z
			 M107.509,38.274c0,0.222-0.114,0.438-0.305,0.577c-2.951,2.139-6.201,3.223-9.655,3.214c-4.418-0.005-6.755-2.087-6.743-6.013
			c0.009-3.729,2.683-5.613,7.937-5.604c2.891,0.004,5.656,0.27,8.195,0.783c0.338,0.073,0.582,0.369,0.582,0.708L107.509,38.274z"
			/>
		<path fill="#FFFFFF" stroke="#4D4D4D" stroke-miterlimit="10" d="M167.912,9.791c-4.216-0.005-8.334,1.75-12.227,5.227
			c-0.136,0.115-0.313,0.185-0.489,0.185l-0.125-0.014c-0.23-0.051-0.415-0.194-0.512-0.388c-1.69-3.344-4.899-5.042-9.562-5.052
			c-4.735-0.009-8.858,1.833-12.255,5.477c-0.185,0.188-0.466,0.272-0.725,0.203c-0.265-0.074-0.452-0.291-0.515-0.555l-1.039-5.152
			l-6.418-0.019l-0.066,38.128l8.537,0.02l0.055-26.787c0-0.187,0.074-0.367,0.203-0.501c2.725-2.793,5.68-4.206,8.776-4.197
			c2.841,0.005,6.229,1.303,6.212,7.445l-0.049,24.071l8.549,0.011l0.051-26.783c0-0.193,0.074-0.376,0.217-0.515
			c2.872-2.784,5.929-4.188,9.068-4.183c4.373,0.009,6.661,2.544,6.656,7.329l-0.046,24.188l8.542,0.015l0.046-23.805
			C180.822,14.505,176.606,9.81,167.912,9.791z"/>
		<path fill="#FFFFFF" stroke="#4D4D4D" stroke-miterlimit="10" d="M46.256,5.811h-4.52c-0.088,0-0.157-0.046-0.203-0.115
			c-0.042-0.069-0.042-0.162,0-0.235l2.95-5.299c0.037-0.078,0.12-0.124,0.198-0.124h6.538c0.093,0,0.176,0.055,0.217,0.139
			c0.037,0.087,0.019,0.188-0.046,0.254l-4.896,5.303C46.451,5.783,46.395,5.811,46.256,5.811z"/>
	</g>
</g>
</svg>
